<?xml version="1.0" encoding="UTF-8"?>
<svg xmlns="http://www.w3.org/2000/svg" viewBox="0 0 800 360" role="img" aria-label="Task orchestration pipeline DAG">
  <rect width="800" height="360" fill="#0f172a" rx="12"/>
  <text x="400" y="32" text-anchor="middle" fill="#94a3b8" font-size="14" font-weight="700">TASK ORCHESTRATION PIPELINE (Airflow DAG)</text>
  <rect x="40" y="80" width="120" height="60" rx="6" fill="#3b82f6" fill-opacity="0.2" stroke="#3b82f6"/>
  <text x="100" y="106" text-anchor="middle" fill="#bfdbfe" font-size="11" font-weight="700">extract</text>
  <line x1="160" y1="110" x2="200" y2="110" stroke="#94a3b8" marker-end="url(#a)"/>
  <rect x="200" y="80" width="120" height="60" rx="6" fill="#22c55e" fill-opacity="0.2" stroke="#22c55e"/>
  <text x="260" y="106" text-anchor="middle" fill="#86efac" font-size="11" font-weight="700">validate</text>
  <line x1="320" y1="110" x2="360" y2="60" stroke="#94a3b8" marker-end="url(#a)"/>
  <line x1="320" y1="110" x2="360" y2="110" stroke="#94a3b8" marker-end="url(#a)"/>
  <line x1="320" y1="110" x2="360" y2="160" stroke="#94a3b8" marker-end="url(#a)"/>
  <rect x="360" y="40" width="120" height="50" rx="6" fill="#fbbf24" fill-opacity="0.2" stroke="#fbbf24"/>
  <text x="420" y="62" text-anchor="middle" fill="#fcd34d" font-size="10" font-weight="700">load_users</text>
  <rect x="360" y="95" width="120" height="50" rx="6" fill="#fbbf24" fill-opacity="0.2" stroke="#fbbf24"/>
  <text x="420" y="117" text-anchor="middle" fill="#fcd34d" font-size="10" font-weight="700">load_orders</text>
  <rect x="360" y="150" width="120" height="50" rx="6" fill="#fbbf24" fill-opacity="0.2" stroke="#fbbf24"/>
  <text x="420" y="172" text-anchor="middle" fill="#fcd34d" font-size="10" font-weight="700">load_events</text>
  <line x1="480" y1="65" x2="520" y2="115" stroke="#94a3b8" marker-end="url(#a)"/>
  <line x1="480" y1="120" x2="520" y2="120" stroke="#94a3b8" marker-end="url(#a)"/>
  <line x1="480" y1="175" x2="520" y2="125" stroke="#94a3b8" marker-end="url(#a)"/>
  <rect x="520" y="90" width="120" height="60" rx="6" fill="#a855f7" fill-opacity="0.2" stroke="#a855f7"/>
  <text x="580" y="116" text-anchor="middle" fill="#ddd6fe" font-size="11" font-weight="700">aggregate</text>
  <line x1="640" y1="120" x2="680" y2="120" stroke="#94a3b8" marker-end="url(#a)"/>
  <rect x="680" y="90" width="100" height="60" rx="6" fill="#ec4899" fill-opacity="0.2" stroke="#ec4899"/>
  <text x="730" y="116" text-anchor="middle" fill="#fbcfe8" font-size="11" font-weight="700">notify</text>
  <text x="100" y="240" fill="#94a3b8" font-size="10">Scheduler: parses DAG, evaluates schedule (cron), enqueues tasks.</text>
  <text x="100" y="262" fill="#94a3b8" font-size="10">Executor: Local / Celery / KubernetesExecutor runs tasks.</text>
  <text x="100" y="284" fill="#94a3b8" font-size="10">Metadata DB tracks task state: queued / running / success / failed.</text>
  <defs><marker id="a" markerWidth="6" markerHeight="6" refX="5" refY="3" orient="auto"><polygon points="0 0, 6 3, 0 6" fill="#94a3b8"/></marker></defs>
</svg>
