<svg xmlns="http://www.w3.org/2000/svg" width="2560" height="1440" viewBox="0 0 2560 1440">
  <defs>
    <linearGradient id="bg" x1="0" y1="0" x2="2560" y2="1440" gradientUnits="userSpaceOnUse">
      <stop offset="0" stop-color="#07070f"/>
      <stop offset="0.45" stop-color="#111827"/>
      <stop offset="1" stop-color="#020617"/>
    </linearGradient>
    <linearGradient id="brand" x1="0" y1="0" x2="1" y2="1">
      <stop offset="0" stop-color="#7c3aed"/>
      <stop offset="0.55" stop-color="#6366f1"/>
      <stop offset="1" stop-color="#3b82f6"/>
    </linearGradient>
    <linearGradient id="accent" x1="620" y1="0" x2="1940" y2="0" gradientUnits="userSpaceOnUse">
      <stop offset="0" stop-color="#7c3aed"/>
      <stop offset="0.5" stop-color="#ec4899"/>
      <stop offset="1" stop-color="#f97316"/>
    </linearGradient>
    <radialGradient id="glow-purple" cx="50%" cy="50%" r="50%">
      <stop offset="0" stop-color="#7c3aed" stop-opacity="0.42"/>
      <stop offset="1" stop-color="#7c3aed" stop-opacity="0"/>
    </radialGradient>
    <radialGradient id="glow-blue" cx="50%" cy="50%" r="50%">
      <stop offset="0" stop-color="#38bdf8" stop-opacity="0.26"/>
      <stop offset="1" stop-color="#38bdf8" stop-opacity="0"/>
    </radialGradient>
    <filter id="soft-shadow" x="-50%" y="-50%" width="200%" height="200%">
      <feDropShadow dx="0" dy="24" stdDeviation="36" flood-color="#000000" flood-opacity="0.42"/>
    </filter>
    <pattern id="grid" width="96" height="96" patternUnits="userSpaceOnUse">
      <path d="M96 0H0V96" fill="none" stroke="#ffffff" stroke-opacity="0.035" stroke-width="1"/>
    </pattern>
  </defs>

  <rect width="2560" height="1440" fill="url(#bg)"/>
  <rect width="2560" height="1440" fill="url(#grid)"/>
  <circle cx="520" cy="300" r="440" fill="url(#glow-purple)"/>
  <circle cx="2070" cy="1110" r="520" fill="url(#glow-blue)"/>

  <g opacity="0.14" fill="none" stroke-linecap="round" stroke-linejoin="round">
    <path d="M258 390 150 510 258 630" stroke="#a78bfa" stroke-width="22"/>
    <path d="M2302 810 2410 930 2302 1050" stroke="#60a5fa" stroke-width="22"/>
    <path d="M2110 230h190c52 0 94 42 94 94v120" stroke="#f97316" stroke-width="8"/>
    <path d="M180 1120h240c40 0 72-32 72-72V930" stroke="#ec4899" stroke-width="8"/>
    <path d="M1978 530h-118c-36 0-66 30-66 66v76" stroke="#38bdf8" stroke-width="8"/>
  </g>

  <g transform="translate(704 540)" filter="url(#soft-shadow)">
    <rect x="0" y="0" width="188" height="188" rx="44" fill="url(#brand)"/>
    <g transform="translate(0 0)" stroke="#ffffff" stroke-width="15" stroke-linecap="round" stroke-linejoin="round" fill="none">
      <polyline points="66 58 34 94 66 130"/>
      <polyline points="122 58 154 94 122 130"/>
      <line x1="110" y1="48" x2="78" y2="140"/>
    </g>
  </g>

  <text x="932" y="618" font-family="Inter, ui-sans-serif, system-ui, -apple-system, BlinkMacSystemFont, Segoe UI, sans-serif" font-size="64" font-weight="850" letter-spacing="-1">
    <tspan fill="#ffffff">Coders</tspan><tspan fill="#9ca3af">Secret</tspan>
  </text>
  <text x="704" y="795" font-family="Inter, ui-sans-serif, system-ui, -apple-system, BlinkMacSystemFont, Segoe UI, sans-serif" font-size="86" font-weight="900" letter-spacing="-2" fill="#ffffff">
    Build Better Software
  </text>
  <text x="708" y="872" font-family="Inter, ui-sans-serif, system-ui, -apple-system, BlinkMacSystemFont, Segoe UI, sans-serif" font-size="34" font-weight="550" fill="#cbd5e1">
    Real engineering. Practical code. Systems that scale.
  </text>

  <g transform="translate(708 946)" font-family="JetBrains Mono, ui-monospace, SFMono-Regular, Consolas, Liberation Mono, Menlo, monospace" font-size="25" font-weight="650">
    <rect x="-2" y="-38" width="812" height="58" rx="29" fill="#ffffff" fill-opacity="0.055" stroke="#ffffff" stroke-opacity="0.08"/>
    <text x="28" y="0" fill="#a78bfa">Angular</text>
    <text x="175" y="0" fill="#64748b">/</text>
    <text x="218" y="0" fill="#93c5fd">Python</text>
    <text x="344" y="0" fill="#64748b">/</text>
    <text x="386" y="0" fill="#f9a8d4">DevOps</text>
    <text x="514" y="0" fill="#64748b">/</text>
    <text x="556" y="0" fill="#fdba74">System Design</text>
  </g>

  <rect x="640" y="1084" width="1280" height="4" rx="2" fill="url(#accent)" opacity="0.92"/>
  <text x="1280" y="1180" text-anchor="middle" font-family="Inter, ui-sans-serif, system-ui, -apple-system, BlinkMacSystemFont, Segoe UI, sans-serif" font-size="28" font-weight="650" fill="#64748b">
    coderssecret.com
  </text>
</svg>
