<?xml version="1.0" encoding="UTF-8"?>
<svg xmlns="http://www.w3.org/2000/svg" viewBox="0 0 800 380" role="img" aria-label="Cache invalidation flow via CDC pipeline">
  <rect width="800" height="380" fill="#0f172a" rx="12"/>
  <text x="400" y="32" text-anchor="middle" fill="#94a3b8" font-size="14" font-weight="700">CACHE INVALIDATION FLOW (CDC-based)</text>
  <rect x="40" y="70" width="120" height="60" rx="6" fill="#1e293b" stroke="#3b82f6"/>
  <text x="100" y="98" text-anchor="middle" fill="#bfdbfe" font-size="11" font-weight="700">App: write</text>
  <text x="100" y="116" text-anchor="middle" fill="#94a3b8" font-size="9">UPDATE users SET ...</text>
  <line x1="160" y1="100" x2="220" y2="100" stroke="#94a3b8" marker-end="url(#a)"/>
  <rect x="220" y="70" width="120" height="60" rx="6" fill="#1e293b" stroke="#22c55e"/>
  <text x="280" y="98" text-anchor="middle" fill="#bbf7d0" font-size="11" font-weight="700">Database</text>
  <text x="280" y="116" text-anchor="middle" fill="#94a3b8" font-size="9">commits, writes WAL</text>
  <line x1="280" y1="130" x2="280" y2="170" stroke="#22c55e" marker-end="url(#a)"/>
  <rect x="220" y="170" width="120" height="50" rx="6" fill="#1e293b" stroke="#fbbf24"/>
  <text x="280" y="195" text-anchor="middle" fill="#fcd34d" font-size="11" font-weight="700">Debezium / DMS</text>
  <line x1="340" y1="195" x2="400" y2="195" stroke="#fbbf24" marker-end="url(#a)"/>
  <rect x="400" y="170" width="120" height="50" rx="6" fill="#1e293b" stroke="#fbbf24"/>
  <text x="460" y="195" text-anchor="middle" fill="#fcd34d" font-size="11" font-weight="700">Kafka topic</text>
  <line x1="520" y1="195" x2="580" y2="195" stroke="#fbbf24" marker-end="url(#a)"/>
  <rect x="580" y="170" width="160" height="50" rx="6" fill="#1e293b" stroke="#a855f7"/>
  <text x="660" y="195" text-anchor="middle" fill="#ddd6fe" font-size="11" font-weight="700">Invalidator service</text>
  <line x1="660" y1="220" x2="660" y2="280" stroke="#a855f7" marker-end="url(#a)"/>
  <rect x="580" y="280" width="160" height="50" rx="6" fill="#1e293b" stroke="#ec4899"/>
  <text x="660" y="305" text-anchor="middle" fill="#fbcfe8" font-size="11" font-weight="700">Distributed cache</text>
  <text x="660" y="320" text-anchor="middle" fill="#94a3b8" font-size="9">user:123 evicted</text>
  <text x="290" y="316" text-anchor="middle" fill="#94a3b8" font-size="9">Total invalidation latency: typically 100–500ms</text>
  <defs><marker id="a" markerWidth="6" markerHeight="6" refX="5" refY="3" orient="auto"><polygon points="0 0, 6 3, 0 6" fill="#94a3b8"/></marker></defs>
</svg>
