<?xml version="1.0" encoding="UTF-8"?>
<svg xmlns="http://www.w3.org/2000/svg" viewBox="0 0 800 360" role="img" aria-label="Distributed cache topology, Redis Cluster with primaries and replicas">
  <rect width="800" height="360" fill="#0f172a" rx="12"/>
  <text x="400" y="32" text-anchor="middle" fill="#94a3b8" font-size="14" font-weight="700">DISTRIBUTED CACHE TOPOLOGY (Redis Cluster)</text>
  <rect x="40" y="60" width="160" height="50" rx="6" fill="#1e293b" stroke="#3b82f6"/>
  <text x="120" y="84" text-anchor="middle" fill="#bfdbfe" font-size="11" font-weight="700">Application pod</text>
  <text x="120" y="100" text-anchor="middle" fill="#94a3b8" font-size="9">cluster-aware client</text>
  <rect x="260" y="65" width="180" height="60" rx="6" fill="#22c55e" fill-opacity="0.2" stroke="#22c55e"/>
  <text x="350" y="86" text-anchor="middle" fill="#86efac" font-size="11" font-weight="700">Primary 1</text>
  <text x="350" y="102" text-anchor="middle" fill="#94a3b8" font-size="9">slots 0–5460</text>
  <rect x="500" y="65" width="180" height="60" rx="6" fill="#94a3b8" fill-opacity="0.2" stroke="#94a3b8" stroke-dasharray="3 2"/>
  <text x="590" y="86" text-anchor="middle" fill="#cbd5e1" font-size="11" font-weight="700">Replica 1</text>
  <rect x="260" y="170" width="180" height="60" rx="6" fill="#22c55e" fill-opacity="0.2" stroke="#22c55e"/>
  <text x="350" y="191" text-anchor="middle" fill="#86efac" font-size="11" font-weight="700">Primary 2</text>
  <text x="350" y="207" text-anchor="middle" fill="#94a3b8" font-size="9">slots 5461–10922</text>
  <rect x="500" y="170" width="180" height="60" rx="6" fill="#94a3b8" fill-opacity="0.2" stroke="#94a3b8" stroke-dasharray="3 2"/>
  <text x="590" y="191" text-anchor="middle" fill="#cbd5e1" font-size="11" font-weight="700">Replica 2</text>
  <rect x="260" y="275" width="180" height="60" rx="6" fill="#22c55e" fill-opacity="0.2" stroke="#22c55e"/>
  <text x="350" y="296" text-anchor="middle" fill="#86efac" font-size="11" font-weight="700">Primary 3</text>
  <text x="350" y="312" text-anchor="middle" fill="#94a3b8" font-size="9">slots 10923–16383</text>
  <rect x="500" y="275" width="180" height="60" rx="6" fill="#94a3b8" fill-opacity="0.2" stroke="#94a3b8" stroke-dasharray="3 2"/>
  <text x="590" y="296" text-anchor="middle" fill="#cbd5e1" font-size="11" font-weight="700">Replica 3</text>
</svg>
