<?xml version="1.0" encoding="UTF-8"?>
<svg xmlns="http://www.w3.org/2000/svg" viewBox="0 0 800 380" role="img" aria-label="Multi-region cache architecture with CDC pipeline">
  <rect width="800" height="380" fill="#0f172a" rx="12"/>
  <text x="400" y="32" text-anchor="middle" fill="#94a3b8" font-size="14" font-weight="700">MULTI-REGION CACHE ARCHITECTURE</text>
  <rect x="40" y="60" width="220" height="240" rx="10" fill="#1e293b" stroke="#3b82f6" stroke-width="1.5"/>
  <text x="150" y="84" text-anchor="middle" fill="#60a5fa" font-size="12" font-weight="700">us-east region</text>
  <rect x="60" y="100" width="180" height="40" fill="#3b82f6" fill-opacity="0.15"/>
  <text x="150" y="124" text-anchor="middle" fill="#bfdbfe" font-size="10" font-weight="700">App fleet (us-east)</text>
  <rect x="60" y="160" width="180" height="40" fill="#22c55e" fill-opacity="0.15"/>
  <text x="150" y="184" text-anchor="middle" fill="#86efac" font-size="10" font-weight="700">Redis Cluster (us-east)</text>
  <rect x="60" y="220" width="180" height="40" fill="#94a3b8" fill-opacity="0.15"/>
  <text x="150" y="244" text-anchor="middle" fill="#cbd5e1" font-size="10" font-weight="700">DB primary</text>
  <rect x="540" y="60" width="220" height="240" rx="10" fill="#1e293b" stroke="#a855f7" stroke-width="1.5"/>
  <text x="650" y="84" text-anchor="middle" fill="#c4b5fd" font-size="12" font-weight="700">eu-west region</text>
  <rect x="560" y="100" width="180" height="40" fill="#a855f7" fill-opacity="0.15"/>
  <text x="650" y="124" text-anchor="middle" fill="#ddd6fe" font-size="10" font-weight="700">App fleet (eu-west)</text>
  <rect x="560" y="160" width="180" height="40" fill="#22c55e" fill-opacity="0.15"/>
  <text x="650" y="184" text-anchor="middle" fill="#86efac" font-size="10" font-weight="700">Redis Cluster (eu-west)</text>
  <rect x="560" y="220" width="180" height="40" fill="#94a3b8" fill-opacity="0.15"/>
  <text x="650" y="244" text-anchor="middle" fill="#cbd5e1" font-size="10" font-weight="700">DB read replica</text>
  <rect x="290" y="120" width="220" height="200" rx="10" fill="#1e293b" stroke="#fbbf24" stroke-width="1.5"/>
  <text x="400" y="146" text-anchor="middle" fill="#fcd34d" font-size="12" font-weight="700">Cross-region pipeline</text>
  <text x="400" y="180" text-anchor="middle" fill="#fcd34d" font-size="10" font-weight="700">Kafka MirrorMaker</text>
  <text x="400" y="220" text-anchor="middle" fill="#fcd34d" font-size="10" font-weight="700">Debezium CDC events</text>
  <text x="400" y="260" text-anchor="middle" fill="#fcd34d" font-size="10" font-weight="700">Invalidator per region</text>
  <text x="400" y="295" text-anchor="middle" fill="#94a3b8" font-size="9">~100–500ms eventual</text>
</svg>
