<svg xmlns="http://www.w3.org/2000/svg" viewBox="0 0 1200 480" fill="none">
  <defs>
    <linearGradient id="bg" x1="0%" y1="0%" x2="100%" y2="100%">
      <stop offset="0%" style="stop-color:#581c87"/>
      <stop offset="50%" style="stop-color:#6b21a8"/>
      <stop offset="100%" style="stop-color:#7c3aed"/>
    </linearGradient>
    <linearGradient id="accent" x1="0%" y1="0%" x2="100%" y2="0%">
      <stop offset="0%" style="stop-color:#c084fc"/>
      <stop offset="100%" style="stop-color:#e9d5ff"/>
    </linearGradient>
    <pattern id="grid" x="31" y="31" width="40" height="40" patternUnits="userSpaceOnUse" patternTransform="rotate(6)">
      <path d="M 40 0 L 0 0 0 40" fill="none" stroke="#ffffff" stroke-width="0.5" opacity="0.06"/>
    </pattern>
  </defs>

  <!-- Background -->
  <rect width="1200" height="480" fill="url(#bg)"/>
  <rect width="1200" height="480" fill="url(#grid)"/>

  <!-- Decorative circles (seeded from slug) -->
  <g>
    <circle cx="26" cy="287" r="40" fill="#c084fc" opacity="0.088"/>
    <circle cx="101" cy="242" r="65" fill="#c084fc" opacity="0.068"/>
    <circle cx="1089" cy="206" r="95" fill="#c084fc" opacity="0.067"/>
    <circle cx="341" cy="222" r="42" fill="#c084fc" opacity="0.051"/>
    <circle cx="84" cy="15" r="146" fill="#c084fc" opacity="0.084"/>
  </g>

  <!-- Category badge -->
  <rect x="80" y="90" width="120" height="30" rx="15" fill="url(#accent)" opacity="0.2"/>
  <text x="100" y="110" font-family="system-ui, -apple-system, sans-serif" font-size="13" font-weight="800" fill="#c084fc" letter-spacing="2">TUTORIAL</text>

  <!-- Title -->
  <text x="80" y="184" font-family="system-ui, -apple-system, sans-serif" font-size="36" font-weight="800" fill="#ffffff">Ethical Hacking for</text>
    <text x="80" y="224" font-family="system-ui, -apple-system, sans-serif" font-size="36" font-weight="800" fill="#ffffff">Beginners: A Hands-On</text>
    <text x="80" y="264" font-family="system-ui, -apple-system, sans-serif" font-size="36" font-weight="800" fill="#ffffff">Tutorial</text>

  <!-- Bottom brand -->
  <text x="80" y="420" font-family="system-ui, -apple-system, sans-serif" font-size="14" fill="#ffffff" opacity="0.5">coderssecret.com</text>

  <!-- Icon (right side) -->
  <g transform="translate(1020, 200)" stroke="#c084fc" opacity="0.9" color="#c084fc">
    <path d="M0,6 C0,2 4,0 10,0 L30,0 C36,0 40,2 40,6 L40,50 C40,48 36,46 30,46 L10,46 C4,46 0,48 0,50 Z" fill="none" stroke-width="3"/><line x1="40" y1="6" x2="40" y2="50" stroke-width="3"/>
  </g>

  <!-- Bottom accent bar -->
  <rect y="470" width="1200" height="10" fill="url(#accent)" opacity="0.6"/>
</svg>
