<svg xmlns="http://www.w3.org/2000/svg" viewBox="0 0 1200 480" fill="none">
  <defs>
    <linearGradient id="bg" x1="0%" y1="0%" x2="100%" y2="100%">
      <stop offset="0%" style="stop-color:#064e3b"/>
      <stop offset="50%" style="stop-color:#065f46"/>
      <stop offset="100%" style="stop-color:#047857"/>
    </linearGradient>
    <linearGradient id="accent" x1="0%" y1="0%" x2="100%" y2="0%">
      <stop offset="0%" style="stop-color:#34d399"/>
      <stop offset="100%" style="stop-color:#6ee7b7"/>
    </linearGradient>
    <pattern id="grid" x="4" y="4" width="40" height="40" patternUnits="userSpaceOnUse" patternTransform="rotate(13)">
      <path d="M 40 0 L 0 0 0 40" fill="none" stroke="#ffffff" stroke-width="0.5" opacity="0.06"/>
    </pattern>
  </defs>

  <!-- Background -->
  <rect width="1200" height="480" fill="url(#bg)"/>
  <rect width="1200" height="480" fill="url(#grid)"/>

  <!-- Decorative circles (seeded from slug) -->
  <g>
    <circle cx="569" cy="42" r="121" fill="#34d399" opacity="0.084"/>
    <circle cx="462" cy="297" r="59" fill="#34d399" opacity="0.042"/>
    <circle cx="1178" cy="27" r="72" fill="#6ee7b7" opacity="0.087"/>
    <circle cx="327" cy="424" r="105" fill="#6ee7b7" opacity="0.057"/>
    <circle cx="117" cy="303" r="110" fill="#6ee7b7" opacity="0.049"/>
  </g>

  <!-- Category badge -->
  <rect x="80" y="90" width="110" height="30" rx="15" fill="url(#accent)" opacity="0.2"/>
  <text x="100" y="110" font-family="system-ui, -apple-system, sans-serif" font-size="13" font-weight="800" fill="#34d399" letter-spacing="2">BACKEND</text>

  <!-- Title -->
  <text x="80" y="184" font-family="system-ui, -apple-system, sans-serif" font-size="36" font-weight="800" fill="#ffffff">Software Compliance</text>
    <text x="80" y="224" font-family="system-ui, -apple-system, sans-serif" font-size="36" font-weight="800" fill="#ffffff">Demystified: HIPAA, SOC 2,</text>
    <text x="80" y="264" font-family="system-ui, -apple-system, sans-serif" font-size="36" font-weight="800" fill="#ffffff">PCI-DSS, GDPR, and ISO 27001</text>

  <!-- Bottom brand -->
  <text x="80" y="420" font-family="system-ui, -apple-system, sans-serif" font-size="14" fill="#ffffff" opacity="0.5">coderssecret.com</text>

  <!-- Icon (right side) -->
  <g transform="translate(1020, 200)" stroke="#34d399" opacity="0.9" color="#34d399">
    <rect x="0" y="0" width="60" height="18" rx="3" fill="none" stroke-width="3"/><rect x="0" y="25" width="60" height="18" rx="3" fill="none" stroke-width="3"/><circle cx="12" cy="9" r="2.5" fill="currentColor"/><circle cx="12" cy="34" r="2.5" fill="currentColor"/>
  </g>

  <!-- Bottom accent bar -->
  <rect y="470" width="1200" height="10" fill="url(#accent)" opacity="0.6"/>
</svg>
